<svg width="633" height="652" viewBox="0 0 633 652" fill="none" xmlns="http://www.w3.org/2000/svg">
<path d="M315.66 596.292C476.261 596.292 606.453 466.09 606.453 305.477C606.453 144.865 476.261 14.6626 315.66 14.6626C155.06 14.6626 24.8674 144.865 24.8674 305.477C24.8674 466.09 155.06 596.292 315.66 596.292Z" fill="#EC8C92"/>
<path d="M62.7206 243.632L61.2031 243.37C61.2802 242.923 69.276 198.342 100.189 164.153L101.329 165.185C70.7165 199.043 62.7976 243.193 62.7206 243.632Z" fill="white"/>
<path d="M104.857 135.896L103.586 135.033C103.832 134.671 128.575 98.7793 168.269 81.2688L168.893 82.6786C129.615 100.004 105.103 135.541 104.857 135.896Z" fill="white"/>
<path d="M589.476 300.2H587.935C587.935 244.911 562.846 194.798 562.592 194.298L563.963 193.604C564.217 194.105 589.476 244.533 589.476 300.2Z" fill="white"/>
<path d="M559.48 271.373C558.293 249.348 551.122 230.813 551.052 230.628L552.485 230.066C552.555 230.251 559.811 249.009 561.02 271.288L559.48 271.373Z" fill="white"/>
<path d="M14.3912 233.155L12.8813 232.831C12.9738 232.385 22.7028 188.034 56.7969 143.214L58.0217 144.146C24.1356 188.697 14.4836 232.716 14.3912 233.155Z" fill="black"/>
<path d="M62.5512 109.21L61.3726 108.224C61.465 108.116 70.5008 97.3464 82.0246 86.4688L83.08 87.5858C71.6177 98.4018 62.6359 109.102 62.5512 109.21Z" fill="black"/>
<path d="M100.651 87.532L99.48 86.5305C99.6109 86.3764 112.814 71.1231 138.011 53.9284C161.251 38.0665 199.752 17.2511 251.216 8.12219L251.486 9.63982C200.291 18.7225 161.991 39.43 138.881 55.1995C113.846 72.2786 100.774 87.3779 100.651 87.532Z" fill="black"/>
<path d="M605.714 206.362C592.75 153.514 551.615 107.893 551.199 107.438L552.339 106.398C552.755 106.853 594.152 152.775 607.208 205.992L605.714 206.362Z" fill="black"/>
<path d="M617.138 283.298C615.605 264.078 611.938 247.253 609.134 236.522L610.628 236.129C613.448 246.922 617.138 263.839 618.678 283.175L617.138 283.298Z" fill="black"/>
<path d="M625.495 355.944L623.993 355.598C625.318 349.866 626.474 343.649 627.429 337.124L628.954 337.348C627.991 343.911 626.82 350.167 625.495 355.944Z" fill="black"/>
<path d="M631.804 308.513L630.264 308.428C631.473 286.241 630.402 264.848 627.591 255.195L629.07 254.764C631.928 264.571 633.022 286.172 631.804 308.513Z" fill="black"/>
<path d="M607.563 378.701L606.099 378.231C608.803 369.819 611.099 358.109 612.924 343.449L614.449 343.642C612.616 358.394 610.297 370.188 607.563 378.701Z" fill="black"/>
<path d="M615.836 330.769L614.303 330.63C614.865 324.529 615.112 320.477 615.112 320.43L616.652 320.523C616.645 320.561 616.398 324.652 615.836 330.769Z" fill="black"/>
<path d="M459.848 40.4469C419.476 14.7474 351.858 5.91891 351.18 5.83417L351.372 4.30884C351.542 4.33195 368.666 6.53521 390.581 11.9047C410.825 16.8659 439.411 25.6173 460.68 39.1527L459.848 40.4469Z" fill="black"/>
<path d="M426.169 12.7829C415.339 8.0066 390.173 2.32897 389.918 2.27505L390.257 0.772827C390.512 0.826753 415.824 6.5352 426.793 11.3808L426.169 12.7829Z" fill="black"/>
<path d="M98.4321 527.791C95.166 525.21 91.9385 522.506 88.8418 519.764L89.8663 518.608C92.9475 521.335 96.152 524.024 99.395 526.581L98.4321 527.791Z" fill="black"/>
<path d="M72.4035 503.601C28.2569 455.453 19.7988 402.914 19.7141 402.39L21.2394 402.159C21.3164 402.683 29.7205 454.775 73.5359 502.561L72.4035 503.601Z" fill="black"/>
<path d="M84.5051 499.618C68.6983 486.584 53.9237 456.84 53.7773 456.539L55.1562 455.861C55.3025 456.154 69.9385 485.605 85.4834 498.432L84.5051 499.618Z" fill="black"/>
<path d="M237.612 598.534C215.142 594.235 192.942 586.593 171.627 575.816L172.321 574.437C193.512 585.145 215.574 592.741 237.905 597.016L237.612 598.534Z" fill="black"/>
<path d="M144.405 559.938C133.358 552.543 127.173 547.058 127.111 547.004L128.136 545.856C128.197 545.91 134.314 551.333 145.26 558.66L144.405 559.938Z" fill="black"/>
<path d="M329.611 614.72L329.534 613.179C335.234 612.901 340.811 612.47 346.103 611.9L346.273 613.433C340.95 614.011 335.342 614.442 329.611 614.72Z" fill="black"/>
<path d="M309.359 615.074C274.094 614.689 244.545 609.404 244.245 609.35L244.522 607.832C244.815 607.886 274.249 613.156 309.375 613.533L309.359 615.074Z" fill="black"/>
<path d="M140.815 514.001C92.2235 479.928 74.3215 425.879 74.1443 425.339L75.6079 424.862C75.7851 425.401 93.5408 478.973 141.701 512.738L140.815 514.001Z" fill="white"/>
<path d="M247.056 572.958C208.918 566.255 170.734 540.725 170.356 540.463L171.219 539.185C171.597 539.439 209.519 564.792 247.326 571.432L247.056 572.958Z" fill="white"/>
<path d="M184.314 526.651C174.162 523.469 161.906 512.106 161.39 511.628L162.438 510.504C162.561 510.619 174.955 522.105 184.769 525.187L184.314 526.651Z" fill="white"/>
<path d="M366.786 56.3551C359.044 61.0697 325.374 80.7758 301.071 99.3109C297.204 102.261 294.323 106.306 292.805 110.928C289.655 120.55 286.828 131.235 286.027 134.332C285.842 135.048 285.934 135.811 286.304 136.45C288.576 140.456 301.032 154.246 368.897 178.251L384.827 143.792C384.827 143.792 374.767 79.6742 371.678 58.2579C371.362 56.1086 368.889 55.0763 366.786 56.3551Z" fill="white"/>
<path d="M520.063 441.725L436.523 451.54C422.973 453.134 411.125 461.431 405.001 473.626L367.61 548.76C366.016 551.934 362.472 553.621 359.006 552.859L345.718 549.931C336.397 547.874 327.084 553.406 324.427 562.573L322.347 569.761C321.191 573.743 323.009 577.981 326.691 579.891L388.031 611.684C392.099 613.787 397.098 612.378 399.463 608.456L461.111 508.054L546.315 502.685L520.063 441.725Z" fill="#274D76"/>
<path d="M472.781 377.569L478.874 362.285L529.276 364.989L510.966 434.191L472.781 377.569Z" fill="#274D76"/>
<path d="M466.418 340.63C466.418 340.63 471.957 326.293 471.872 318.505C471.764 308.143 472.889 287.058 466.287 288.052C462.266 288.653 461.065 298.406 460.572 302.596C460.379 304.253 459.74 305.84 458.63 307.088C457.051 308.867 454.81 309.553 453.631 301.487C451.713 288.344 452.129 263.053 444.495 267.683C440.628 270.033 442.7 292.998 440.513 291.981C438.325 290.964 438.595 256.282 429.289 260.064C426.216 261.312 426.909 277.883 427.541 287.15C427.579 287.667 426.824 287.774 426.709 287.266C425.453 281.665 423.527 273.507 421.987 268.723C420.33 263.569 416.479 266.266 416.479 270.025C416.479 278.114 417.85 295.147 417.85 295.147L466.418 340.63Z" fill="#274D76"/>
<path d="M595.792 386.644L609.658 410.525L577.305 514.525C574.27 525.072 562.207 531.651 551.376 529.848L509.733 525.226C504.387 524.332 502.469 527.075 504.341 532.159L522.312 614.627C525.363 622.924 520.633 632.045 512.09 634.333L450.126 650.896C444.125 652.499 438.132 648.308 437.585 642.122L434.019 620.836C433.873 619.211 433.41 612.686 437.1 610.051C442.492 606.199 450.966 600.807 450.966 600.807C453.824 599.274 454.116 594.69 453.277 591.562L429.736 500.012C425.892 485.69 434.805 474.589 449.433 472.155C467.92 469.073 498.733 462.14 498.733 462.14L511.928 376.051C513.661 369.218 519.97 364.542 527.019 364.881L547.263 365.844L595.792 386.644Z" fill="#FFF3A1"/>
<path d="M587.838 364.011C592.047 346.186 581.01 328.323 563.186 324.114C545.362 319.905 527.501 330.944 523.292 348.769C519.083 366.594 530.121 384.457 547.945 388.666C565.769 392.875 583.63 381.837 587.838 364.011Z" fill="#FFF3A1"/>
<path d="M254.413 355.937L364.614 256.235C370.306 251.082 378.634 251.49 385.374 255.165C399.001 262.599 422.372 275.888 443.217 298.475C460.718 317.441 489.797 347.555 493.233 373.047C493.626 375.966 492.609 378.894 490.568 381.012C456.967 415.825 388.617 479.943 380.975 486.461C362.888 501.891 315.984 467.055 289.262 435.994C278.1 423.028 240.447 369.11 254.413 355.937Z" fill="white"/>
<path d="M613.432 392.745C603.203 382.676 585.717 383.277 574.932 392.522L536.702 427.342C534.606 429.083 531.502 428.814 529.738 426.741L502.654 395.079C498.294 389.972 495.659 383.624 495.12 376.937L494.142 364.865C494.073 364.049 493.88 363.247 493.556 362.493L488.619 349.781C487.941 348.033 485.584 347.817 484.559 349.389C483.173 351.522 482.418 354.735 482.418 357.924C482.418 364.087 483.866 370.743 481.555 370.743C478.474 370.743 474.815 364.688 473.251 359.003C471.456 352.462 470.563 347.247 467.397 344.35C465.964 343.041 463.414 343.904 463.021 346.084C462.105 351.106 463.16 360.567 463.245 365.936C463.268 367.477 461.889 367.446 461.465 365.574C460.163 359.773 456.612 342.047 456.612 342.047C456.05 339.713 452.83 339.443 451.898 341.662C449.233 348.033 450.226 361.892 450.712 367.045C450.758 367.5 450.142 367.685 449.934 367.284C448.647 364.881 446.375 360.151 444.749 354.126C444.387 352.786 442.554 352.493 441.876 353.703C439.835 357.377 440.875 366.152 441.422 369.757C441.476 370.096 441.013 370.25 440.844 369.957C439.958 368.401 439.28 366.93 438.595 365.173C437.709 362.901 435.806 364.203 435.644 365.643C435.105 370.504 434.828 377.453 436.892 386.359C437.639 389.571 440.343 399.208 452.46 413.699L517.166 485.344C528.721 499.981 543.527 496.121 551.831 489.966C572.629 474.558 611.021 436.602 611.021 436.602C625.626 424.276 622.568 401.735 613.432 392.745Z" fill="#FFF3A1"/>
<path d="M324.072 415.386C285.403 374.048 265.243 362.131 255.399 361.029C253.219 360.782 251.332 362.485 251.347 364.68C251.463 384.818 279.825 425.039 289.254 436.009C310.777 461.038 345.418 488.518 367.526 490.174C369.22 490.297 370.591 488.826 370.399 487.146C369.058 475.329 359.722 453.497 324.072 415.386Z" fill="#F2BDBA"/>
<path d="M286.635 137.013C289.693 144.378 324.835 167.034 368.881 178.258L370.191 175.431C353.098 160.447 323.548 145.41 301.61 139.748C293.568 137.675 289.185 136.712 286.635 137.013Z" fill="#F2BDBA"/>
<path d="M370.984 71.2001C366.948 67.8336 362.149 65.5995 356.734 64.5595L357.026 63.0496C362.704 64.1435 367.726 66.4854 371.97 70.0137L370.984 71.2001Z" fill="black"/>
<path d="M429.882 326.732L413.575 313.073C411.018 310.932 407.697 309.938 404.385 310.338C391.174 311.925 356.633 316.571 345.056 322.934C340.765 325.291 331.475 335.583 331.475 335.583C328.109 339.073 328.093 344.597 331.444 348.11L352.643 371.537C354.114 373.162 356.595 373.347 358.29 371.96L375.236 358.078C377.07 356.576 377.255 353.834 375.637 352.092L372.225 348.441C370.861 347.162 371.493 344.874 373.326 344.481L428.434 332.648C431.177 332.04 432.047 328.542 429.882 326.732ZM404.485 350.621C401.835 348.741 398.538 348.58 396.043 350.644L344.848 392.93C341.766 395.472 341.574 401.658 344.185 404.686C346.211 407.035 350.294 411.719 352.273 414.123C355.932 418.568 361.941 418.706 364.891 416.018L378.711 403.422C379.966 402.282 381.907 402.359 383.063 403.599L385.99 406.743C388.062 408.915 391.482 409.023 393.685 406.989L408.945 392.891C411.834 390.218 411.857 385.658 408.984 382.961L407.574 381.636C406.257 380.404 406.272 378.3 407.605 377.091L414.63 370.689C417.249 368.301 418.181 362.947 414.877 359.827C414.884 359.827 407.913 353.063 404.485 350.621Z" fill="#93B4F6"/>
<path d="M292.882 141.134C302.596 148.784 327.985 162.697 359.345 172.873L360.377 170.709C347.42 159.7 317.91 146.026 293.514 139.848C292.751 139.655 292.258 140.649 292.882 141.134Z" fill="black"/>
<path d="M257.941 369.033C262.347 363.456 301.279 399.778 314.474 413.237C337.06 436.263 369.86 480.829 361.956 482.909C357.034 484.203 326.583 467.147 294.438 430.809C269.981 403.153 255.222 372.477 257.941 369.033Z" fill="black"/>
<path d="M518.053 47.6344L516.912 40.7165C515.965 34.9618 510.272 32.1423 504.772 34.099C497.562 36.6567 488.211 39.6919 483.142 43.6362C481.131 45.2001 480.038 47.6653 480.246 50.1998C482.102 72.7177 484.228 90.2667 485.237 98.0167C485.592 100.767 484.683 103.533 482.757 105.528L460.264 128.924L483.073 140.587L525.771 100.798L518.053 47.6344Z" fill="#274D76"/>
<path d="M368.889 178.258L385.204 142.968C388.031 136.859 393.994 132.814 400.711 132.437L434.52 130.565C442.839 130.103 450.935 127.699 458.161 123.547C464.077 120.149 471.356 120.18 477.241 123.639C481.108 125.912 485.992 125.488 489.412 122.584L501.622 112.215C503.024 111.021 503.779 109.241 503.663 107.408C503.016 97.593 500.959 65.4531 500.697 49.7838C500.659 47.6036 501.884 45.593 503.84 44.6377C511.967 40.6703 524.693 38.7367 534.445 40.4007C536.856 40.809 538.743 42.7888 538.897 45.2309C539.552 55.9236 532.249 67.3791 532.249 67.3791L538.681 115.735C540.099 126.397 535.546 136.974 526.834 143.276L486.215 172.642C483.134 174.869 479.93 176.933 476.617 178.805C468.752 183.266 460.341 186.686 451.598 188.974L420.469 197.117L368.889 178.258Z" fill="#FFF3A1"/>
<path d="M382.886 146.55L401.797 143.684L416.494 159.3L388.008 186.409L372.941 169.384L382.886 146.55Z" fill="#274D76"/>
<path d="M429.149 137.711C432.851 123.55 424.373 109.071 410.213 105.369C396.054 101.668 381.576 110.146 377.874 124.307C374.173 138.467 382.651 152.947 396.81 156.648C410.97 160.35 425.448 151.871 429.149 137.711Z" fill="#FFF3A1"/>
<path d="M335.666 121.29L340.68 113.547C341.528 112.238 341.011 110.481 339.586 109.842L337.491 108.902C336.228 108.332 336.066 106.606 337.206 105.813L359.599 90.2898C360.731 89.504 360.477 87.763 359.168 87.3239L348.915 83.942C347.698 83.5414 346.373 83.7186 345.302 84.4273L323.256 99.0258C321.9 99.9194 320.806 101.152 320.067 102.593L316.97 108.632C315.406 111.683 316.747 115.419 319.89 116.775L332.515 122.237C333.663 122.738 334.995 122.33 335.666 121.29ZM362.141 117.869L361.001 117.16C359.984 116.529 359.599 115.242 360.092 114.156L361.602 110.843C362.488 108.902 361.733 106.606 359.869 105.566L354.808 102.747C352.82 101.645 350.317 102.362 349.231 104.357L333.94 132.229C332.923 134.085 333.486 136.412 335.242 137.598L340.657 141.242C342.652 142.583 345.371 141.92 346.535 139.817L350.918 131.828C351.572 130.642 353.082 130.241 354.238 130.942L354.839 131.312C356.156 132.121 357.881 131.628 358.575 130.249L363.096 121.313C363.728 120.088 363.304 118.593 362.141 117.869Z" fill="#93B4F6"/>
<path d="M448.809 144.293C441.399 137.675 430.098 138.068 423.158 145.171L402.529 166.295C400.919 167.943 398.546 168.598 396.32 168.013L365.654 159.962C363.535 159.408 361.617 158.267 360.115 156.673L351.311 147.336C350.579 146.558 349.261 146.696 348.792 147.652C348.306 148.63 348.006 150.232 348.507 152.829C349.616 158.606 346.265 158.591 342.86 155.864C341.104 154.462 338.385 152.274 336.166 150.479C334.479 149.115 331.991 150.333 331.983 152.497C331.968 155.132 332.345 158.152 333.863 159.839C330.766 169.13 335.966 180.161 344.201 184.614C353.706 189.752 404.94 205.584 404.94 205.584C409.916 207.055 415.3 205.676 418.959 202.001L449.595 171.233C457.113 163.698 456.751 151.388 448.809 144.293Z" fill="#FFF3A1"/>
<path d="M387.492 113.447C384.211 115.828 381.653 119.256 380.136 123.339C376.715 132.545 379.943 142.436 387.153 148.345C391.036 151.527 396.959 152.282 402.844 148.646C406.673 146.28 409.569 142.475 411.249 137.96C414.191 130.049 412.204 121.844 406.95 115.966C402.636 111.152 392.961 109.472 387.492 113.447Z" fill="black"/>
<path d="M195.661 411.85C192.719 400.634 189.445 386.182 187.719 381.274C187.65 381.082 187.411 380.55 187.234 380.435C185.686 379.402 176.596 375.05 166.073 376.806C162.815 377.353 151.63 376.313 147.155 379.71C145.768 380.758 145.244 382.53 145.121 384.263C144.489 393.608 142.933 422.481 143.195 432.227C143.241 433.975 144.443 435.547 146.161 435.894C165.118 439.753 187.165 437.974 196.986 430.555C198.072 429.731 198.681 428.429 198.558 427.065C198.311 424.454 197.633 419.361 195.661 411.85Z" fill="white"/>
<path d="M87.3398 337.024L56.0188 327.233C54.3935 326.724 53.3767 325.106 53.6155 323.419L58.453 289.577C58.792 287.189 57.1358 284.978 54.7478 284.631L35.1819 281.642C34.2652 281.511 32.2932 282.197 32.2932 284.831C32.2932 286.118 32.6476 286.834 33.3023 287.62L36.8381 291.88C37.5005 292.674 37.7856 293.722 37.6161 294.738L33.4333 320.623L47.7534 351.122L82.5484 354.843L87.3398 337.024Z" fill="#274D76"/>
<path d="M25.4606 293.359L52.6835 336.184C53.4153 337.34 54.5861 338.156 55.9188 338.457L62.0197 339.813C64.0456 340.26 66.1639 339.905 67.928 338.827L70.2851 337.386C74.9609 334.52 80.6535 333.85 85.8685 335.553L123.213 347.732L112.298 381.775L75.477 372.792C72.2802 372.014 69.1374 371.059 66.0484 369.927C61.4573 368.247 54.7402 365.682 50.6499 363.671C40.1043 358.487 36.6455 354.45 34.9278 351.23C29.4662 340.991 15.9704 317.788 14.268 315.045C12.0572 311.486 7.19652 311.178 4.61598 310.508C3.02143 310.092 1.85056 309.391 1.2035 307.873L0.872268 307.103C0.479409 306.186 0.787543 305.123 1.60407 304.553L19.4907 292.057C21.4781 290.671 24.2281 291.264 25.4606 293.359Z" fill="#FFF3A1"/>
<path d="M139.867 371.036L172.821 371.013C175.51 370.998 178.283 371.799 179.7 373.424C180.548 374.395 182.057 376.49 182.858 377.499C183.413 378.208 183.213 379.125 182.412 378.932L178.414 377.499L179.122 379.949C179.608 381.274 178.398 381.875 177.374 381.359L173.391 379.479C173.491 380.589 172.321 381.374 171.327 380.858C169.494 379.903 168.793 379.287 166.258 377.561C165.627 377.137 164.879 376.922 164.117 376.96C157.323 377.299 152.531 378.147 148.387 379.841C145.313 381.097 145.236 384.294 145.182 385.296C145.09 386.983 142.81 392.036 142.81 392.036L121.357 387.622L117.559 373.339L139.867 371.036Z" fill="#274D76"/>
<path d="M127.342 374.842C136.685 374.842 144.258 366.95 144.258 357.215C144.258 347.481 136.685 339.589 127.342 339.589C118 339.589 110.426 347.481 110.426 357.215C110.426 366.95 118 374.842 127.342 374.842Z" fill="#FFF3A1"/>
<path d="M134.699 398.831C134.699 398.831 124.292 417.212 122.728 428.074C122.227 431.572 124.777 434.784 128.29 435.2C131.402 435.562 136.216 435.739 143.465 435.162C142.417 431.888 144.805 402.783 145.83 391.019C145.968 389.44 144.019 388.593 142.949 389.764L134.699 398.831Z" fill="white"/>
<path d="M170.225 390.072C172.452 394.709 180.856 412.405 182.651 419.508C182.874 420.386 182.181 421.218 181.279 421.164C173.06 420.617 165.126 421.819 161.744 422.435C160.882 422.589 160.111 421.888 160.181 421.018L162.476 392.676C162.515 392.175 162.838 391.736 163.3 391.551L168.515 389.425C169.17 389.155 169.917 389.44 170.225 390.072Z" fill="white"/>
<path d="M180.717 413.784C176.912 403.831 169.678 388.947 169.678 388.947L167.976 389.64L176.049 421.025C178.291 421.002 180.632 421.141 182.974 421.364C182.866 419.87 181.98 417.104 180.717 413.784Z" fill="#93B4F6"/>
<path d="M182.982 421.364C182.974 421.233 176.766 416.195 176.766 416.195C175.702 415.386 174.27 415.278 173.107 415.918L160.974 422.566C163.901 422.004 173.438 420.44 182.982 421.364Z" fill="#274D76"/>
<path d="M121.603 362.392C121.318 365.466 122.004 368.355 123.367 370.782C124.284 372.407 126.009 373.455 127.881 373.455C127.889 373.455 127.904 373.455 127.912 373.455C136.339 373.455 143.172 366.337 143.172 357.555C143.172 357.539 143.172 357.516 143.172 357.501C143.157 353.795 140.507 350.644 137.002 350.059C135.931 349.882 134.814 349.835 133.666 349.936C127.334 350.513 122.212 355.806 121.603 362.392Z" fill="black"/>
<path d="M176.18 392.321L172.544 392.745C172.251 392.776 172.105 392.406 172.336 392.229L175.386 389.926C176.58 389.024 175.864 387.129 174.377 387.245C171.073 387.499 166.813 387.853 163.77 388.177C163.269 388.231 163.046 387.553 163.485 387.299C164.849 386.52 165.565 386.143 166.982 385.349C169.008 384.209 167.013 382.607 164.695 382.692C160.358 382.861 156.036 385.473 152.747 385.473C146.8 385.473 130.339 384.672 130.339 384.672C129.037 384.625 127.827 383.963 127.096 382.884L113.723 363.094C109.979 358.148 102.916 357.231 98.0394 361.06C93.4099 364.688 92.4161 371.306 95.7824 376.136L115.364 401.227C117.174 403.546 119.924 404.948 122.867 405.048L165.503 404.401C170.587 404.408 174.162 399.802 174.616 397.406C175.926 396.52 176.858 395.549 177.528 394.671C178.306 393.639 177.474 392.167 176.18 392.321Z" fill="#FFF3A1"/>
<path d="M123.714 210.021C123.714 210.021 127.334 223.626 136.463 242.068C149.404 268.207 155.72 278.676 162.376 289.901C170.48 303.567 195.222 317.426 242.958 287.851C292.42 257.214 284.879 237.03 281.597 230.004C279.656 225.844 263.903 196.401 250.831 174.052C245.731 165.332 240.917 157.882 237.713 153.075C235.047 149.077 230.764 146.481 225.988 145.941C212.97 144.47 185.393 144.616 157.038 165.162C117.944 193.496 123.714 210.021 123.714 210.021Z" fill="white"/>
<path d="M283.585 244.965C284.886 238.394 282.052 231.676 276.528 227.87C262.524 218.21 235.093 217.794 200.314 239.765C162.099 263.908 161.213 284.338 166.898 295.655C178.036 306.648 202.055 313.189 242.951 287.851C272.261 269.701 281.551 255.218 283.585 244.965Z" fill="#F2BDBA"/>
<path d="M174.054 294.908C169.301 288.105 169.209 266.797 204.882 243.848C240.84 220.713 272.384 227.292 277.021 239.765C281.659 252.237 255.822 275.079 227.044 289.7C201.007 302.935 179.323 302.45 174.054 294.908Z" fill="black"/>
<path d="M143.164 430.216C140.029 430.208 136.725 430.378 133.42 430.64C125.979 431.233 124.977 433.575 125.678 434.291C126.333 434.962 127.327 435.324 128.29 435.431C131.402 435.794 137.826 436.002 144.667 435.2C143.164 433.544 143.172 432.743 143.164 430.216Z" fill="black"/>
<path d="M195.492 384.348C193.265 381.598 191.994 381.937 187.927 381.875C189.653 387.838 192.657 400.403 195.661 411.858C198.665 423.306 198.681 429.13 198.681 429.13C202.455 428.629 205.498 428.067 212.885 426.826C218.917 425.809 219.456 420.817 216.336 416.195L195.492 384.348Z" fill="white"/>
<path d="M195.73 431.441C196.162 430.347 195.453 429.253 193.643 428.359C190.046 426.572 183.005 425.17 169.286 425.94C156.637 426.649 150.22 429.777 146.993 432.535C145.267 434.014 145.383 435.154 146.908 436.078C165.919 440.693 185.585 438.12 195.73 431.441Z" fill="#F2BDBA"/>
<path d="M213.671 426.965C215.196 426.572 215.435 424.939 214.642 424.369C214.303 424.13 213.902 423.883 213.425 423.637C209.673 421.711 203.68 421.734 197.949 422.42C198.673 426.872 198.804 427.943 197.988 429.453C202.656 429.13 213.217 427.08 213.671 426.965Z" fill="black"/>
<path d="M169.27 205.514C167.029 199.875 166.959 193.589 169.601 189.467C170.218 188.504 171.35 186.933 170.78 185.947L165.819 178.751C164.772 176.933 162.037 178.074 160.781 179.761C154.596 188.104 152.285 198.974 156.907 210.576C163.693 227.639 176.295 232.631 189.283 229.457C191.386 228.941 192.41 226.561 191.324 224.689L187.534 218.41C186.702 216.97 185.108 216.176 183.444 216.307C177.836 216.762 172.29 213.095 169.27 205.514ZM206.268 185.384C196.447 169.831 180.84 167.458 170.618 171.341C168.831 172.018 168.022 174.091 168.977 175.747L174.555 183.304C175.217 184.445 176.527 184.999 177.813 184.753C183.267 183.697 189.968 185.808 194.382 192.479C197.887 197.78 197.88 206.077 192.318 211.408C191.101 212.578 191.224 214.589 192.071 216.053L195.63 222.193C197.04 224.619 200.191 224.85 202.34 223.055C212.415 214.643 213.155 196.293 206.268 185.384Z" fill="#93B4F6"/>
<path d="M426.293 184.298C425.761 184.298 425.222 184.16 424.729 183.875C420.954 181.679 414.145 177.388 410.948 173.405C410.047 172.28 410.07 170.64 411.017 169.499L421.024 157.435C422.079 156.157 423.951 155.933 425.284 156.919C428.427 159.253 434.15 163.568 437.193 166.264C438.418 167.35 438.61 169.153 437.639 170.462C434.142 175.192 430.653 180.308 428.889 182.927C428.28 183.813 427.294 184.298 426.293 184.298ZM423.42 157.844C422.965 157.844 422.511 158.036 422.202 158.414L412.196 170.478C411.718 171.056 411.695 171.872 412.15 172.435C415.308 176.371 422.541 180.816 425.507 182.542C426.223 182.958 427.14 182.75 427.602 182.064C429.382 179.429 432.879 174.299 436.392 169.538C436.877 168.875 436.784 167.959 436.16 167.412C433.164 164.754 427.479 160.471 424.352 158.152C424.074 157.944 423.743 157.844 423.42 157.844Z" fill="black"/>
<path d="M571.89 458.55C571.697 458.55 571.504 458.542 571.304 458.519C569.702 458.365 568.261 457.587 567.252 456.339L550.652 435.732C548.68 433.282 548.965 429.715 551.292 427.604L569.64 411.018C570.85 409.924 572.406 409.385 574.023 409.5C575.649 409.616 577.112 410.363 578.16 411.604L595.723 432.535C597.826 435.038 597.495 438.782 594.999 440.885L575.695 457.14C574.617 458.065 573.284 458.55 571.89 458.55ZM552.331 428.752C550.606 430.316 550.398 432.951 551.854 434.769L568.454 455.376C569.201 456.3 570.264 456.878 571.451 456.994C572.637 457.109 573.792 456.747 574.701 455.985L594.005 439.73C595.854 438.174 596.093 435.4 594.544 433.544L576.981 412.613C576.211 411.688 575.117 411.134 573.916 411.057C572.714 410.98 571.558 411.372 570.673 412.181L552.331 428.752Z" fill="black"/>
<path d="M481.208 422.412L480.007 421.449L488.657 410.595C489.166 409.955 488.988 409.285 488.65 408.869C488.311 408.453 487.687 408.145 486.955 408.515L477.18 413.545C475.901 414.2 474.453 413.884 473.559 412.767C472.666 411.65 472.696 410.163 473.621 409.069L482.318 398.8C482.857 398.161 482.68 397.475 482.341 397.051C481.994 396.628 481.37 396.304 480.631 396.697L455.434 409.524L454.733 408.153L479.922 395.326C481.185 394.656 482.649 394.964 483.542 396.081C484.444 397.206 484.421 398.692 483.496 399.794L474.799 410.063C474.26 410.695 474.43 411.38 474.769 411.804C475.107 412.228 475.731 412.551 476.471 412.174L486.238 407.143C487.494 406.496 488.935 406.797 489.828 407.883C490.722 408.969 490.729 410.448 489.851 411.55L481.208 422.412Z" fill="black"/>
<path d="M523.146 438.385L511.902 468.708L513.346 469.243L524.59 438.921L523.146 438.385Z" fill="black"/>
<path d="M540.786 444.972L539.332 445.484L552.301 482.334L553.754 481.823L540.786 444.972Z" fill="black"/>
<path d="M540.249 470.484L538.725 470.709L541.4 488.825L542.924 488.599L540.249 470.484Z" fill="black"/>
<path d="M522.915 463.499L520.145 478.014L521.658 478.302L524.428 463.788L522.915 463.499Z" fill="black"/>
<path d="M399.616 172.537L398.261 173.272L412.239 199.028L413.593 198.293L399.616 172.537Z" fill="black"/>
<path d="M399.703 186.224L398.222 186.65L402.539 201.665L404.019 201.239L399.703 186.224Z" fill="black"/>
<path d="M392.736 174.979L391.4 197.543L392.938 197.634L394.274 175.07L392.736 174.979Z" fill="black"/>
<path d="M352.019 183.728L350.532 183.327L354.492 168.521C354.738 167.589 355.578 167.011 356.541 167.111C357.496 167.211 358.197 167.959 358.251 168.914L358.69 177.781C358.706 178.027 358.875 178.104 358.983 178.127C359.091 178.151 359.276 178.158 359.391 177.935L365.107 166.657L366.478 167.35L360.77 178.628C360.369 179.414 359.53 179.815 358.667 179.63C357.804 179.445 357.203 178.736 357.157 177.858L356.718 168.991C356.703 168.714 356.502 168.652 356.387 168.644C356.271 168.629 356.063 168.652 355.994 168.914L352.019 183.728Z" fill="black"/>
<path d="M510.389 106.196L510.146 107.718L532.693 111.312L532.935 109.79L510.389 106.196Z" fill="black"/>
<path d="M511.937 113.098L511.376 114.533L532.544 122.8L533.105 121.365L511.937 113.098Z" fill="black"/>
<path d="M512.235 119.047L511.068 120.052L526.036 137.448L527.204 136.443L512.235 119.047Z" fill="black"/>
<path d="M489.296 532.082L489.212 532.074L445.165 527.036L445.343 525.503L489.343 530.533C490.406 530.518 490.984 529.786 491.176 529.108C491.369 528.423 491.238 527.483 490.298 526.928L439.611 503C438.032 502.061 437.439 500.296 438.102 498.663C438.764 497.03 440.428 496.175 442.138 496.591L482.341 505.535C483.496 505.812 484.259 505.134 484.567 504.464C484.867 503.809 484.898 502.815 484.004 502.122L450.326 485.474L451.012 484.095L484.867 500.843C486.454 502.007 486.562 503.825 485.969 505.111C485.376 506.398 483.92 507.492 482.002 507.037L441.799 498.093C440.59 497.8 439.827 498.532 439.534 499.249C439.242 499.957 439.28 501.013 440.335 501.645L491.022 525.572C492.47 526.435 493.086 527.968 492.663 529.524C492.224 531.08 490.906 532.082 489.296 532.082Z" fill="black"/>
<path d="M109.949 386.721C109.787 386.721 109.625 386.713 109.463 386.69C108.5 386.551 107.645 386.004 107.114 385.188L103.077 379.002C102.068 377.461 102.492 375.365 104.025 374.341L109.409 370.728C110.95 369.695 113.045 370.104 114.085 371.629L117.821 377.099C118.799 378.532 118.538 380.458 117.22 381.582L112.144 385.912C111.528 386.443 110.75 386.721 109.949 386.721ZM111.297 371.706C110.942 371.706 110.588 371.806 110.272 372.014L104.888 375.627C104.056 376.19 103.825 377.322 104.372 378.17L108.408 384.356C108.701 384.802 109.163 385.095 109.687 385.172C110.218 385.249 110.742 385.095 111.143 384.749L116.219 380.419C116.935 379.803 117.082 378.755 116.542 377.977L112.806 372.507C112.467 371.983 111.882 371.706 111.297 371.706Z" fill="black"/>
<path d="M124.552 387.306L116.118 396.146L117.233 397.21L125.666 388.37L124.552 387.306Z" fill="black"/>
<path d="M121.982 395.409L119.734 399.952L121.115 400.635L123.363 396.092L121.982 395.409Z" fill="black"/>
<path d="M128.145 387.141L125.001 402.145L126.509 402.461L129.653 387.457L128.145 387.141Z" fill="black"/>
<path d="M145.683 399.255C145.645 399.255 145.614 399.255 145.575 399.255C144.551 399.208 143.681 398.554 143.357 397.583L141.986 393.438L143.449 392.953L144.821 397.098C145.005 397.645 145.491 397.714 145.637 397.714C145.783 397.714 146.276 397.699 146.508 397.167L147.84 394.047C148.164 393.292 148.834 392.753 149.643 392.606C150.452 392.46 151.268 392.714 151.838 393.3L155.867 397.429C156.221 397.791 156.653 397.752 156.945 397.591C157.238 397.429 157.508 397.082 157.392 396.589L155.52 388.577L157.022 388.231L158.894 396.243C159.148 397.321 158.663 398.407 157.693 398.939C156.714 399.47 155.543 399.293 154.765 398.5L150.737 394.371C150.521 394.147 150.22 394.055 149.928 394.116C149.627 394.17 149.381 394.371 149.265 394.648L147.933 397.768C147.54 398.685 146.669 399.255 145.683 399.255Z" fill="black"/>
<path d="M46.3812 337.491L35.3496 341.277L35.8497 342.734L46.8813 338.948L46.3812 337.491Z" fill="black"/>
<path d="M43.3293 342.402L37.3984 347.343L38.3844 348.526L44.3153 343.586L43.3293 342.402Z" fill="black"/>
<path d="M47.7257 342.701L43.1152 354.563L44.5513 355.121L49.1617 343.259L47.7257 342.701Z" fill="black"/>
<path d="M6.40321 308.135C6.23374 308.135 6.05658 308.12 5.88712 308.081L4.55444 307.789L4.88567 306.286L6.21834 306.579C6.46484 306.633 6.71903 306.579 6.91931 306.44C7.12729 306.294 7.25828 306.078 7.28909 305.824L7.42774 304.746C7.52018 304.06 7.89761 303.444 8.46764 303.051C9.03768 302.658 9.75405 302.535 10.4242 302.696L13.0741 303.351C13.3591 303.421 13.6519 303.351 13.8675 303.159C14.0909 302.966 14.1988 302.689 14.1757 302.396L14.0447 300.917C13.9754 300.131 14.2758 299.376 14.8689 298.86C15.4621 298.344 16.2478 298.144 17.0181 298.328L18.7513 298.737C19.0363 298.806 19.3214 298.729 19.5447 298.536C19.7604 298.344 19.876 298.066 19.8452 297.774C19.7604 296.926 20.1148 296.117 20.7926 295.601C21.4705 295.085 22.3487 294.962 23.1421 295.27L25.1295 296.033L24.5749 297.473L22.5875 296.711C22.2948 296.595 21.9789 296.641 21.7247 296.834C21.4705 297.026 21.3473 297.319 21.3781 297.635C21.4551 298.429 21.1547 299.176 20.5616 299.7C19.9684 300.224 19.175 300.424 18.4047 300.239L16.6715 299.831C16.3865 299.769 16.1014 299.838 15.878 300.023C15.6624 300.216 15.5468 300.485 15.5776 300.778L15.7086 302.257C15.7779 303.043 15.4698 303.813 14.8689 304.322C14.2681 304.83 13.4593 305.031 12.6967 304.838L10.0468 304.183C9.80028 304.122 9.54608 304.168 9.33039 304.314C9.1147 304.461 8.98375 304.676 8.94523 304.938L8.80658 306.017C8.71415 306.687 8.35209 307.295 7.78977 307.688C7.3892 307.981 6.90392 308.135 6.40321 308.135Z" fill="black"/>
<path d="M509.286 56.9175C509.263 56.9175 509.248 56.9175 509.225 56.9175C508.439 56.8944 507.761 56.4321 507.453 55.7157L506.205 52.8191C506.097 52.5726 505.881 52.5418 505.789 52.5418C505.789 52.5418 505.789 52.5418 505.781 52.5418C505.689 52.5418 505.466 52.5726 505.365 52.8268L503.971 56.3089L502.538 55.7388L503.933 52.2567C504.233 51.5018 504.949 51.0164 505.758 51.001C505.766 51.001 505.774 51.001 505.781 51.001C506.582 51.001 507.299 51.4709 507.615 52.2028L508.863 55.0994C508.963 55.3382 509.178 55.369 509.271 55.3767C509.356 55.3767 509.571 55.3613 509.687 55.1225L510.588 53.3198C510.888 52.7189 511.466 52.3107 512.129 52.2336C512.799 52.1489 513.454 52.4031 513.885 52.9193L515.372 54.6526C515.534 54.8375 515.734 54.8144 515.811 54.799C515.888 54.7836 516.08 54.7219 516.15 54.4831L517.051 51.471C517.251 50.8084 517.767 50.3 518.445 50.1151C519.115 49.9302 519.824 50.1074 520.325 50.585L523.237 53.3121C523.406 53.4739 523.606 53.4431 523.683 53.4123C523.76 53.3892 523.938 53.3121 523.992 53.081L524.562 50.6158C524.723 49.9302 525.209 49.3909 525.879 49.1675C526.549 48.9441 527.265 49.0905 527.797 49.545L529.884 51.3246C530.069 51.4787 530.262 51.4324 530.339 51.4016C530.416 51.3708 530.593 51.2861 530.632 51.0472L531.024 48.6052C531.14 47.881 531.648 47.2801 532.342 47.0413C533.043 46.8025 533.805 46.9643 534.345 47.465C534.545 47.6499 534.753 47.5806 534.837 47.5498C534.922 47.5113 535.107 47.4034 535.107 47.1338V45.3773H536.648V47.1338C536.648 47.9427 536.193 48.636 535.454 48.9595C534.714 49.2831 533.89 49.1444 533.297 48.5975C533.12 48.428 532.919 48.4742 532.842 48.505C532.765 48.5281 532.58 48.6206 532.542 48.8594L532.149 51.3015C532.034 52.0179 531.556 52.6034 530.87 52.8576C530.185 53.1118 529.445 52.9809 528.891 52.5032L526.803 50.7237C526.626 50.5773 526.441 50.6158 526.364 50.639C526.295 50.6621 526.118 50.7468 526.064 50.9702L525.494 53.4354C525.332 54.1364 524.823 54.6834 524.13 54.8991C523.437 55.1071 522.713 54.9376 522.181 54.4446L519.269 51.7175C519.1 51.5634 518.915 51.5942 518.838 51.6096C518.761 51.6327 518.584 51.7021 518.522 51.9178L517.621 54.9299C517.413 55.631 516.835 56.1548 516.127 56.3089C515.41 56.463 514.671 56.2087 514.201 55.6541L512.714 53.9207C512.568 53.7513 512.391 53.7589 512.314 53.7667C512.244 53.7744 512.059 53.8206 511.959 54.0132L511.058 55.8158C510.727 56.4938 510.049 56.9175 509.286 56.9175Z" fill="black"/>
<path d="M507.031 45.206L506.255 46.5369L513.607 50.8255L514.383 49.4946L507.031 45.206Z" fill="black"/>
<path d="M513.954 42.372L513.206 43.7189L522.761 49.0272L523.51 47.6803L513.954 42.372Z" fill="black"/>
<path d="M522.69 41.4253L522.03 42.8174L529.895 46.5484L530.555 45.1564L522.69 41.4253Z" fill="black"/>
<path d="M443.17 642.137L441.753 641.536L444.11 635.99C444.68 634.649 445.805 633.655 447.207 633.255C448.609 632.854 450.088 633.108 451.282 633.948L453.731 635.674C454.586 636.275 455.642 636.436 456.635 636.097C457.629 635.766 458.376 635.003 458.7 634.01L459.124 632.692C459.601 631.19 460.795 630.027 462.297 629.572C463.799 629.118 465.44 629.434 466.665 630.412L469.153 632.392C470.008 633.07 471.094 633.278 472.134 632.954C473.174 632.638 473.96 631.853 474.283 630.813L474.923 628.756C475.393 627.246 476.525 626.098 478.035 625.62C479.544 625.135 481.131 625.412 482.395 626.368L485.252 628.532C486.115 629.187 487.201 629.372 488.234 629.033C489.266 628.694 490.028 627.901 490.337 626.861L491.407 623.217C491.877 621.622 493.11 620.405 494.712 619.95C496.306 619.504 498.001 619.904 499.234 621.021L501.529 623.109C502.384 623.887 503.563 624.157 504.672 623.81C505.781 623.471 506.606 622.593 506.883 621.468C507.291 619.789 508.524 618.487 510.187 618.001C511.844 617.516 513.585 617.932 514.84 619.126L518.414 622.523L517.351 623.64L513.777 620.243C512.922 619.434 511.744 619.149 510.619 619.48C509.494 619.812 508.655 620.69 508.377 621.838C507.977 623.502 506.76 624.788 505.127 625.289C503.493 625.79 501.76 625.405 500.497 624.249L498.201 622.161C497.37 621.399 496.222 621.129 495.136 621.437C494.049 621.745 493.21 622.57 492.894 623.648L491.823 627.292C491.376 628.802 490.221 629.996 488.727 630.489C487.224 630.982 485.584 630.705 484.328 629.757L481.47 627.592C480.615 626.945 479.537 626.76 478.512 627.084C477.488 627.408 476.717 628.186 476.402 629.21L475.762 631.267C475.292 632.777 474.106 633.956 472.596 634.426C471.086 634.888 469.446 634.58 468.205 633.594L465.717 631.614C464.87 630.936 463.792 630.728 462.752 631.044C461.712 631.36 460.926 632.13 460.595 633.162L460.171 634.48C459.701 635.951 458.592 637.068 457.128 637.561C455.665 638.054 454.109 637.823 452.845 636.929L450.396 635.204C449.587 634.634 448.586 634.464 447.63 634.734C446.683 635.003 445.913 635.681 445.527 636.59L443.17 642.137Z" fill="black"/>
<path d="M392.83 603.965H391.29V596.577C391.29 595.56 390.766 594.651 389.896 594.135C389.025 593.619 387.97 593.604 387.084 594.089L383.826 595.884C382.454 596.639 380.829 596.616 379.489 595.815C378.141 595.021 377.339 593.611 377.339 592.048V589.505C377.339 588.542 376.877 587.68 376.076 587.14C375.275 586.601 374.297 586.509 373.411 586.886L369.228 588.635C367.872 589.205 366.332 589.058 365.115 588.242C363.89 587.425 363.158 586.062 363.158 584.598V583.758C363.158 582.795 362.704 581.94 361.902 581.401C361.101 580.862 360.131 580.762 359.245 581.131L355.239 582.772C353.883 583.327 352.351 583.173 351.141 582.356C349.924 581.54 349.2 580.184 349.2 578.72C349.2 577.749 348.738 576.887 347.929 576.355C347.12 575.816 346.142 575.731 345.256 576.109L342.144 577.426C340.942 577.934 339.594 577.88 338.439 577.287C337.283 576.694 336.451 575.631 336.166 574.36L335.766 572.603C335.573 571.771 335.034 571.078 334.279 570.701C333.516 570.315 332.638 570.292 331.86 570.639L326.329 573.066L325.713 571.656L331.244 569.229C332.446 568.705 333.809 568.736 334.98 569.329C336.151 569.922 336.99 570.993 337.283 572.272L337.684 574.029C337.869 574.853 338.408 575.538 339.155 575.924C339.902 576.309 340.78 576.34 341.558 576.016L344.671 574.699C346.026 574.121 347.567 574.267 348.799 575.084C350.024 575.901 350.756 577.264 350.756 578.736C350.756 579.698 351.21 580.554 352.012 581.093C352.813 581.632 353.776 581.725 354.669 581.362L358.675 579.722C360.031 579.167 361.563 579.321 362.773 580.138C363.99 580.954 364.714 582.31 364.714 583.774V584.613C364.714 585.576 365.176 586.439 365.977 586.979C366.778 587.518 367.757 587.61 368.643 587.233L372.825 585.484C374.181 584.922 375.722 585.068 376.939 585.877C378.164 586.693 378.888 588.057 378.888 589.521V592.063C378.888 593.08 379.412 593.989 380.282 594.505C381.153 595.021 382.208 595.037 383.094 594.551L386.352 592.756C387.723 592.001 389.349 592.024 390.689 592.826C392.037 593.619 392.838 595.029 392.838 596.593V603.965H392.83Z" fill="black"/>
<path d="M566.051 367.785C558.933 379.34 539.983 385.396 530.755 372.977C520.502 359.172 527.812 329.813 549.15 328.581C554.018 328.296 558.871 329.89 562.707 333.064C572.444 341.13 574.031 354.827 566.051 367.785Z" fill="black"/>
<path d="M541.716 352.485C539.097 360.582 536.093 369.534 532.326 364.942C529.985 362.084 528.56 355.213 530.231 348.68C531.548 343.534 535.23 338.596 538.889 336.007C540.784 334.667 542.703 334.359 544.235 335.175C548.149 337.248 544.651 343.403 541.716 352.485Z" fill="#74BAAB"/>
<path d="M393.785 127.607C389.834 131.836 385.389 136.466 383.564 131.643C382.431 128.647 382.963 123.37 385.813 119.757C388.054 116.906 392.075 115.288 395.519 115.234C397.306 115.211 398.854 115.889 399.856 117.145C402.382 120.342 398.215 122.861 393.785 127.607Z" fill="#74BAAB"/>
<path d="M135.6 359.85C135.654 357.085 135.762 354.019 137.88 355.143C139.197 355.844 141.732 361.399 138.828 364.796C138.281 365.435 137.472 365.636 136.74 365.505C134.884 365.181 135.538 362.947 135.6 359.85Z" fill="#74BAAB"/>
<path d="M191.024 431.718C191.355 431.002 190.762 430.301 189.283 429.754C186.333 428.667 180.594 427.889 169.463 428.66C159.202 429.368 154.049 431.533 151.468 433.39C150.09 434.384 150.197 435.131 151.461 435.693C166.975 438.328 182.897 436.263 191.024 431.718Z" fill="black"/>
<path d="M460.68 365.744C459.393 360.004 455.857 342.37 455.819 342.193L457.329 341.893C457.367 342.07 460.895 359.681 462.182 365.405L460.68 365.744Z" fill="black"/>
<path d="M476.294 367.615C474.707 365.312 473.32 362.246 472.488 359.211C472.196 358.148 471.926 357.115 471.672 356.121C470.37 351.137 469.346 347.193 466.857 344.92L467.897 343.78C470.724 346.361 471.803 350.498 473.166 355.729C473.421 356.715 473.69 357.739 473.983 358.795C474.776 361.676 476.078 364.572 477.572 366.737L476.294 367.615Z" fill="black"/>
<path d="M483.604 367.97L482.064 367.924C482.102 366.714 481.987 365.135 481.871 363.463C481.755 361.745 481.617 359.804 481.617 357.924C481.617 354.496 482.464 351.153 483.881 348.965L485.176 349.804C483.912 351.753 483.157 354.781 483.157 357.924C483.157 359.742 483.281 361.583 483.404 363.355C483.527 365.065 483.643 366.683 483.604 367.97Z" fill="black"/>
<path d="M533.513 429.245C531.88 429.245 530.27 428.56 529.137 427.242L516.312 412.251L517.482 411.249L530.308 426.241C531.795 427.982 534.437 428.213 536.201 426.749L574.409 391.952C576.504 390.157 578.861 388.654 581.426 387.483L582.065 388.885C579.631 389.995 577.397 391.42 575.425 393.107L537.21 427.912C536.132 428.806 534.814 429.245 533.513 429.245Z" fill="black"/>
<path d="M536.055 496.26C529.468 496.26 522.528 493.417 516.535 485.821L501.776 469.482L502.916 468.449L517.713 484.827C528.544 498.548 542.602 495.828 551.345 489.349C558.34 484.165 568.076 475.876 580.286 464.705L581.326 465.846C569.078 477.047 559.295 485.374 552.262 490.59C547.81 493.879 542.078 496.26 536.055 496.26Z" fill="black"/>
<path d="M440.143 370.335C439.288 368.833 438.579 367.331 437.847 365.451L439.288 364.896C439.997 366.722 440.651 368.124 441.483 369.572L440.143 370.335Z" fill="black"/>
<path d="M449.217 367.639C447.969 365.304 445.627 360.466 443.964 354.319L445.45 353.918C447.068 359.92 449.356 364.634 450.573 366.907L449.217 367.639Z" fill="black"/>
<path d="M555.543 390.257C543.087 390.257 531.656 383.454 525.709 372.5L527.065 371.76C532.742 382.214 543.657 388.716 555.543 388.716V390.257Z" fill="black"/>
<path d="M346.712 158.421C345.487 158.421 343.985 157.759 342.39 156.48C340.634 155.078 337.915 152.882 335.688 151.095L336.659 149.893C338.885 151.688 341.597 153.876 343.353 155.278C344.994 156.596 346.588 157.181 347.32 156.734C347.983 156.334 348.137 154.97 347.759 152.983C347.305 150.61 347.42 148.707 348.114 147.313L349.493 147.998C349.123 148.746 348.784 150.163 349.269 152.69C349.801 155.463 349.415 157.266 348.114 158.052C347.705 158.298 347.228 158.421 346.712 158.421Z" fill="black"/>
<path d="M403.083 166.834L401.982 165.755L422.611 144.632C429.852 137.213 441.591 136.813 449.325 143.715L448.301 144.863C441.183 138.507 430.383 138.877 423.72 145.703L403.083 166.834Z" fill="black"/>
<path d="M449.046 170.698L428.115 191.731L429.207 192.818L450.138 171.785L449.046 170.698Z" fill="black"/>
<path d="M117.79 370.489L113.091 363.533C111.435 361.345 108.978 359.92 106.213 359.557C103.447 359.203 100.712 359.95 98.5171 361.668L97.5696 360.459C100.096 358.479 103.231 357.616 106.413 358.032C109.594 358.448 112.406 360.081 114.347 362.639L119.069 369.626L117.79 370.489Z" fill="black"/>
<path d="M143.51 407.769L142.598 425.711L144.136 425.789L145.049 407.847L143.51 407.769Z" fill="black"/>
<path d="M189.874 385.772L188.38 386.148L195.911 416.029L197.405 415.653L189.874 385.772Z" fill="black"/>
</svg>
